<?xml version="1.0" encoding="UTF-8"?>
<!-- Generator: visioncortex VTracer -->
<svg id="svg" version="1.1" xmlns="http://www.w3.org/2000/svg" style="display: block;" viewBox="0 0 141 27"><path d="M0 0 C5 3 5 3 9 8 C9 14.27 9 20.54 9 27 C2.73 27 -3.54 27 -10 27 C-12.31 25.02 -14.62 23.04 -17 21 C-18 18 -18 18 -18 9 C-15 4 -15 4 -12 1 C-9 0 -9 0 0 0 Z " transform="translate(18,0)" style="fill: #000000;"/><path d="M0 0 C2.64 0 5.28 0 8 0 C9.65 0.99 11.3 1.98 13 3 C14.32 2.01 15.64 1.02 17 0 C19.64 0 22.28 0 25 0 C27.475 1.98 27.475 1.98 30 4 C31 7 31 7 31 19 C30.01 19 29.02 19 28 19 C27.505 13.555 27.505 13.555 27 8 C26.01 6.68 25.02 5.36 24 4 C22.02 4 20.04 4 18 4 C17.01 4.99 16.02 5.98 15 7 C14.67 10.96 14.34 14.92 14 19 C13.01 19 12.02 19 11 19 C10.67 15.04 10.34 11.08 10 7 C9.67 6.01 9.34 5.02 9 4 C6.36 4 3.72 4 1 4 C0.01 5.32 -0.98 6.64 -2 8 C-2.33 11.63 -2.66 15.26 -3 19 C-3.99 19 -4.98 19 -6 19 C-6 15.04 -6 11.08 -6 7 C-4.68 5.02 -3.36 3.04 -2 1 C-1.34 0.67 -0.68 0.34 0 0 Z " transform="translate(35,8)" style="fill: #000000;"/><path d="M0 0 C2.31 0 4.62 0 7 0 C8.32 1.32 9.64 2.64 11 4 C11 7.63 11 11.26 11 15 C7.37 15 3.74 15 0 15 C-1.32 13.68 -2.64 12.36 -4 11 C-4 8.69 -4 6.38 -4 4 C-2.68 2.68 -1.36 1.36 0 0 Z " transform="translate(10,6)" style="fill: #E8C816;"/><path d="M0 0 C2.97 0 5.94 0 9 0 C10.65 1.65 12.3 3.3 14 5 C15 8 15 8 15 19 C13.68 18.67 12.36 18.34 11 18 C10.34 18.33 9.68 18.66 9 19 C6.03 19 3.06 19 0 19 C-1.65 17.02 -3.3 15.04 -5 13 C-5 10.69 -5 8.38 -5 6 C-3.35 4.02 -1.7 2.04 0 0 Z M2 3 C0.68 4.32 -0.64 5.64 -2 7 C-2 8.65 -2 10.3 -2 12 C-0.68 13.32 0.64 14.64 2 16 C3.98 16 5.96 16 8 16 C9.32 14.35 10.64 12.7 12 11 C11.67 9.35 11.34 7.7 11 6 C10.01 5.01 9.02 4.02 8 3 C6.02 3 4.04 3 2 3 Z " transform="translate(72,8)" style="fill: #000000;"/><path d="M0 0 C2.97 0 5.94 0 9 0 C10.65 1.65 12.3 3.3 14 5 C14.33 6.98 14.66 8.96 15 11 C14.01 12.98 13.02 14.96 12 17 C11.01 17.66 10.02 18.32 9 19 C6.03 19 3.06 19 0 19 C-1.65 17.02 -3.3 15.04 -5 13 C-5 10.69 -5 8.38 -5 6 C-3.35 4.02 -1.7 2.04 0 0 Z M2 3 C0.68 4.32 -0.64 5.64 -2 7 C-2 8.65 -2 10.3 -2 12 C-0.68 13.32 0.64 14.64 2 16 C3.98 16 5.96 16 8 16 C9.32 14.35 10.64 12.7 12 11 C11.67 9.35 11.34 7.7 11 6 C10.01 5.01 9.02 4.02 8 3 C6.02 3 4.04 3 2 3 Z " transform="translate(126,8)" style="fill: #000000;"/><path d="M0 0 C2.97 0 5.94 0 9 0 C10.65 1.65 12.3 3.3 14 5 C14 6.65 14 8.3 14 10 C13.01 9.67 12.02 9.34 11 9 C10.01 7.35 9.02 5.7 8 4 C6.02 4 4.04 4 2 4 C1.01 4.99 0.02 5.98 -1 7 C-1.33 10.96 -1.66 14.92 -2 19 C-2.99 19 -3.98 19 -5 19 C-5 14.38 -5 9.76 -5 5 C-3.35 3.35 -1.7 1.7 0 0 Z " transform="translate(93,8)" style="fill: #000000;"/><path d="M0 0 C0.99 0 1.98 0 3 0 C3 7.59 3 15.18 3 23 C2.01 23 1.02 23 0 23 C0 15.41 0 7.82 0 0 Z " transform="translate(113,4)" style="fill: #000000;"/><path d="M0 0 C0.99 0 1.98 0 3 0 C3 6.27 3 12.54 3 19 C2.01 19 1.02 19 0 19 C0 12.73 0 6.46 0 0 Z " transform="translate(117,8)" style="fill: #000000;"/><path d="M0 0 C0.99 0 1.98 0 3 0 C3 6.27 3 12.54 3 19 C2.01 19 1.02 19 0 19 C0 12.73 0 6.46 0 0 Z " transform="translate(109,8)" style="fill: #000000;"/><path d="M0 0 C1.65 0 3.3 0 5 0 C5 1.65 5 3.3 5 5 C3.35 5 1.7 5 0 5 C0 3.35 0 1.7 0 0 Z " transform="translate(11,11)" style="fill: #000000;"/><path d="M0 0 C2.97 0 5.94 0 9 0 C9 0.33 9 0.66 9 1 C6.03 1 3.06 1 0 1 C0 0.67 0 0.34 0 0 Z " transform="translate(12,21)" style="fill: #605E51;"/><path d="M0 0 C0.33 0 0.66 0 1 0 C1 2.97 1 5.94 1 9 C0.67 9 0.34 9 0 9 C0 6.03 0 3.06 0 0 Z " transform="translate(21,12)" style="fill: #605E51;"/><path d="M0 0 C0.99 0 1.98 0 3 0 C3 0.99 3 1.98 3 3 C2.01 3 1.02 3 0 3 C0 2.01 0 1.02 0 0 Z " transform="translate(117,4)" style="fill: #000000;"/><path d="M0 0 C0.99 0 1.98 0 3 0 C3 0.99 3 1.98 3 3 C2.01 3 1.02 3 0 3 C0 2.01 0 1.02 0 0 Z " transform="translate(109,4)" style="fill: #000000;"/><path d="M0 0 C3 1 3 1 3 1 Z " transform="translate(12,16)" style="fill: #988F60;"/><path d="" transform="translate(0,0)" style="fill: #988F60;"/><path d="" transform="translate(0,0)" style="fill: #938B61;"/><path d="M0 0 C0.99 0.495 0.99 0.495 2 1 C1.01 1.495 1.01 1.495 0 2 C0 1.34 0 0.68 0 0 Z " transform="translate(11,11)" style="fill: #000000;"/><path d="M0 0 C3 1 3 1 3 1 Z " transform="translate(12,10)" style="fill: #938B61;"/><path d="M0 0 C2 1 2 1 2 1 Z " transform="translate(12,21)" style="fill: #605E51;"/><path d="M0 0 C2 1 2 1 2 1 Z " transform="translate(10,20)" style="fill: #E0C32C;"/><path d="" transform="translate(0,0)" style="fill: #232222;"/><path d="" transform="translate(0,0)" style="fill: #605E51;"/><path d="" transform="translate(0,0)" style="fill: #E0C32C;"/><path d="" transform="translate(0,0)" style="fill: #D5BB3B;"/><path d="" transform="translate(0,0)" style="fill: #E0C32C;"/><path d="M0 0 C2 1 2 1 2 1 Z " transform="translate(8,7)" style="fill: #E0C32C;"/><path d="M0 0 C2 1 2 1 2 1 Z " transform="translate(10,6)" style="fill: #D5BB3B;"/><path d="M0 0 C2 1 2 1 2 1 Z " transform="translate(13,5)" style="fill: #232222;"/><path d="" transform="translate(0,0)" style="fill: #232222;"/><path d="" transform="translate(0,0)" style="fill: #535149;"/><path d="" transform="translate(0,0)" style="fill: #AA9C5C;"/><path d="" transform="translate(0,0)" style="fill: #44433E;"/><path d="" transform="translate(0,0)" style="fill: #7C775E;"/><path d="" transform="translate(0,0)" style="fill: #7C775E;"/><path d="" transform="translate(0,0)" style="fill: #E0C32C;"/><path d="" transform="translate(0,0)" style="fill: #44433E;"/><path d="" transform="translate(0,0)" style="fill: #DFC22E;"/><path d="" transform="translate(0,0)" style="fill: #9E9460;"/><path d="" transform="translate(0,0)" style="fill: #DFC22E;"/><path d="" transform="translate(0,0)" style="fill: #AA9C5C;"/><path d="" transform="translate(0,0)" style="fill: #DFC22E;"/><path d="" transform="translate(0,0)" style="fill: #525048;"/><path d="" transform="translate(0,0)" style="fill: #525048;"/><path d="" transform="translate(0,0)" style="fill: #DFC22E;"/><path d="" transform="translate(0,0)" style="fill: #E0C32C;"/><path d="" transform="translate(0,0)" style="fill: #A99C5C;"/><path d="" transform="translate(0,0)" style="fill: #605E51;"/><path d="" transform="translate(0,0)" style="fill: #535149;"/><path d="" transform="translate(0,0)" style="fill: #9E9460;"/><path d="" transform="translate(0,0)" style="fill: #A99C5C;"/><path d="" transform="translate(0,0)" style="fill: #DFC22E;"/><path d="" transform="translate(0,0)" style="fill: #525048;"/><path d="" transform="translate(0,0)" style="fill: #525048;"/><path d="" transform="translate(0,0)" style="fill: #AA9C5C;"/><path d="" transform="translate(0,0)" style="fill: #DFC22E;"/><path d="" transform="translate(0,0)" style="fill: #A99C5C;"/><path d="" transform="translate(0,0)" style="fill: #A99C5C;"/><path d="" transform="translate(0,0)" style="fill: #9E945F;"/><path d="" transform="translate(0,0)" style="fill: #44433E;"/><path d="" transform="translate(0,0)" style="fill: #232222;"/><path d="" transform="translate(0,0)" style="fill: #7C775E;"/><path d="" transform="translate(0,0)" style="fill: #6E6C5A;"/><path d="" transform="translate(0,0)" style="fill: #7C775E;"/><path d="" transform="translate(0,0)" style="fill: #E0C32C;"/><path d="" transform="translate(0,0)" style="fill: #6E6C5A;"/><path d="" transform="translate(0,0)" style="fill: #44433E;"/><path d="" transform="translate(0,0)" style="fill: #AA9C5C;"/><path d="" transform="translate(0,0)" style="fill: #E0C32C;"/><path d="" transform="translate(0,0)" style="fill: #9E945F;"/><path d="" transform="translate(0,0)" style="fill: #232222;"/><path d="" transform="translate(0,0)" style="fill: #605E51;"/></svg>